<svg width="70" height="73" viewBox="0 0 70 73" fill="none" xmlns="http://www.w3.org/2000/svg">
<g filter="url(#filter0_i_47_26)">
<path d="M12.347 65.8834C18.9109 72.1418 26.0988 68.8893 35.0332 68.9386C44.3498 68.99 52.1518 72.72 58.7058 65.8834C63.6201 60.7573 62.1587 54.5192 63.9664 47.5523C66.3126 38.5102 72.5016 33.3981 68.8982 24.8082C65.8364 17.5092 59.4534 17.1109 53.1165 12.5875C45.7613 7.33711 42.6442 -0.52183 33.7181 0.0272936C25.7901 0.515015 23.2281 6.88623 16.95 11.9085C9.61683 17.7749 1.59832 19.416 0.18196 28.8817C-0.96112 36.5212 3.55492 39.2643 6.1002 46.5339C8.70943 53.9862 6.70846 60.5073 12.347 65.8834Z" fill="url(#paint0_radial_47_26)" fill-opacity="0.4"/>
<path d="M12.347 65.8834C18.9109 72.1418 26.0988 68.8893 35.0332 68.9386C44.3498 68.99 52.1518 72.72 58.7058 65.8834C63.6201 60.7573 62.1587 54.5192 63.9664 47.5523C66.3126 38.5102 72.5016 33.3981 68.8982 24.8082C65.8364 17.5092 59.4534 17.1109 53.1165 12.5875C45.7613 7.33711 42.6442 -0.52183 33.7181 0.0272936C25.7901 0.515015 23.2281 6.88623 16.95 11.9085C9.61683 17.7749 1.59832 19.416 0.18196 28.8817C-0.96112 36.5212 3.55492 39.2643 6.1002 46.5339C8.70943 53.9862 6.70846 60.5073 12.347 65.8834Z" fill="url(#paint1_diamond_47_26)" fill-opacity="0.2"/>
</g>
<g filter="url(#filter1_di_47_26)">
<path d="M16.7874 60.9686C22.2231 66.1166 28.1756 63.4411 35.5744 63.4817C43.2897 63.524 49.7507 66.5922 55.1783 60.9686C59.2479 56.752 58.0377 51.6206 59.5347 45.8898C61.4776 38.4519 66.6029 34.2468 63.6188 27.1809C61.0833 21.1769 55.7973 20.8493 50.5496 17.1284C44.4586 12.8095 41.8772 6.34492 34.4853 6.79662C27.9199 7.19781 25.7983 12.4386 20.5992 16.5699C14.5264 21.3955 7.88611 22.7454 6.71319 30.5317C5.76657 36.8158 9.50642 39.0722 11.6142 45.0521C13.775 51.1822 12.1179 56.5463 16.7874 60.9686Z" fill="#FFE33C" fill-opacity="0.2" shape-rendering="crispEdges"/>
</g>
<g filter="url(#filter2_df_47_26)">
<path d="M19.9411 55.0575C24.1461 58.8933 28.7508 56.8998 34.4744 56.93C40.4428 56.9616 45.441 59.2477 49.6397 55.0575C52.7879 51.9157 51.8517 48.0923 53.0097 43.8223C54.5128 38.2804 58.4776 35.1471 56.1692 29.8824C54.2077 25.4088 50.1186 25.1647 46.059 22.3923C41.3471 19.1743 39.3502 14.3575 33.6319 14.6941C28.553 14.993 26.9118 18.898 22.8899 21.9762C18.192 25.5717 13.0552 26.5775 12.1478 32.3791C11.4155 37.0613 14.3086 38.7426 15.9392 43.1981C17.6107 47.7657 16.3289 51.7625 19.9411 55.0575Z" fill="#FFE33C"/>
</g>
<g filter="url(#filter3_di_47_26)">
<path d="M23.6735 51.0063C26.9555 54.1355 30.5494 52.5092 35.0166 52.5339C39.6749 52.5596 43.5759 54.4246 46.8529 51.0063C49.3101 48.4432 48.5793 45.3242 49.4832 41.8407C50.6563 37.3197 53.7508 34.7636 51.9491 30.4687C50.4182 26.8192 47.2267 26.62 44.0582 24.3583C40.3806 21.7331 38.8221 17.8037 34.359 18.0782C30.395 18.3221 29.1141 21.5077 25.975 24.0188C22.3084 26.952 18.2992 27.7726 17.591 32.5054C17.0194 36.3252 19.2775 37.6967 20.5501 41.3315C21.8547 45.0577 20.8542 48.3182 23.6735 51.0063Z" fill="url(#paint2_radial_47_26)"/>
</g>
<g filter="url(#filter4_di_47_26)">
<path d="M25.3492 40.346C26.1383 42.9313 28.4417 43.2323 30.7219 44.631C33.0997 46.0895 34.5659 48.2339 37.2174 47.5393C39.2054 47.0184 39.7196 45.2299 41.1745 43.7662C43.0628 41.8665 45.3752 41.5469 45.676 38.8373C45.9315 36.5348 44.3542 35.4447 43.376 33.329C42.2407 30.8732 42.5619 28.422 40.1985 27.1745C38.0994 26.0664 36.5363 27.264 34.2138 27.5472C31.5011 27.8781 29.2146 27.0447 27.504 29.1948C26.1235 30.93 26.889 32.3175 26.5054 34.5324C26.1121 36.803 24.6712 38.1252 25.3492 40.346Z" fill="url(#paint3_radial_47_26)" fill-opacity="0.6" shape-rendering="crispEdges"/>
</g>
<defs>
<filter id="filter0_i_47_26" x="0" y="0" width="70" height="74" filterUnits="userSpaceOnUse" color-interpolation-filters="sRGB">
<feFlood flood-opacity="0" result="BackgroundImageFix"/>
<feBlend mode="normal" in="SourceGraphic" in2="BackgroundImageFix" result="shape"/>
<feColorMatrix in="SourceAlpha" type="matrix" values="0 0 0 0 0 0 0 0 0 0 0 0 0 0 0 0 0 0 127 0" result="hardAlpha"/>
<feOffset dy="4"/>
<feGaussianBlur stdDeviation="2"/>
<feComposite in2="hardAlpha" operator="arithmetic" k2="-1" k3="1"/>
<feColorMatrix type="matrix" values="0 0 0 0 0.822998 0 0 0 0 0.782781 0 0 0 0 0.0186461 0 0 0 0.25 0"/>
<feBlend mode="normal" in2="shape" result="effect1_innerShadow_47_26"/>
</filter>
<filter id="filter1_di_47_26" x="2.5625" y="6.77417" width="65.9688" height="65.5807" filterUnits="userSpaceOnUse" color-interpolation-filters="sRGB">
<feFlood flood-opacity="0" result="BackgroundImageFix"/>
<feColorMatrix in="SourceAlpha" type="matrix" values="0 0 0 0 0 0 0 0 0 0 0 0 0 0 0 0 0 0 127 0" result="hardAlpha"/>
<feOffset dy="4"/>
<feGaussianBlur stdDeviation="2"/>
<feComposite in2="hardAlpha" operator="out"/>
<feColorMatrix type="matrix" values="0 0 0 0 0.243311 0 0 0 0 0.243311 0 0 0 0 0.243311 0 0 0 0.25 0"/>
<feBlend mode="normal" in2="BackgroundImageFix" result="effect1_dropShadow_47_26"/>
<feBlend mode="normal" in="SourceGraphic" in2="effect1_dropShadow_47_26" result="shape"/>
<feColorMatrix in="SourceAlpha" type="matrix" values="0 0 0 0 0 0 0 0 0 0 0 0 0 0 0 0 0 0 127 0" result="hardAlpha"/>
<feOffset dy="4"/>
<feGaussianBlur stdDeviation="2"/>
<feComposite in2="hardAlpha" operator="arithmetic" k2="-1" k3="1"/>
<feColorMatrix type="matrix" values="0 0 0 0 0.973307 0 0 0 0 0.854061 0 0 0 0 0.142844 0 0 0 0.25 0"/>
<feBlend mode="normal" in2="shape" result="effect2_innerShadow_47_26"/>
</filter>
<filter id="filter2_df_47_26" x="6.03125" y="8.67737" width="56.8438" height="56.9032" filterUnits="userSpaceOnUse" color-interpolation-filters="sRGB">
<feFlood flood-opacity="0" result="BackgroundImageFix"/>
<feColorMatrix in="SourceAlpha" type="matrix" values="0 0 0 0 0 0 0 0 0 0 0 0 0 0 0 0 0 0 127 0" result="hardAlpha"/>
<feOffset dy="4"/>
<feGaussianBlur stdDeviation="2"/>
<feComposite in2="hardAlpha" operator="out"/>
<feColorMatrix type="matrix" values="0 0 0 0 1 0 0 0 0 1 0 0 0 0 1 0 0 0 0.25 0"/>
<feBlend mode="normal" in2="BackgroundImageFix" result="effect1_dropShadow_47_26"/>
<feBlend mode="normal" in="SourceGraphic" in2="effect1_dropShadow_47_26" result="shape"/>
<feGaussianBlur stdDeviation="3" result="effect2_foregroundBlur_47_26"/>
</filter>
<filter id="filter3_di_47_26" x="13.5" y="18.0646" width="43" height="43" filterUnits="userSpaceOnUse" color-interpolation-filters="sRGB">
<feFlood flood-opacity="0" result="BackgroundImageFix"/>
<feColorMatrix in="SourceAlpha" type="matrix" values="0 0 0 0 0 0 0 0 0 0 0 0 0 0 0 0 0 0 127 0" result="hardAlpha"/>
<feOffset dy="4"/>
<feGaussianBlur stdDeviation="2"/>
<feComposite in2="hardAlpha" operator="out"/>
<feColorMatrix type="matrix" values="0 0 0 0 0.104443 0 0 0 0 0.104443 0 0 0 0 0.104443 0 0 0 0.25 0"/>
<feBlend mode="normal" in2="BackgroundImageFix" result="effect1_dropShadow_47_26"/>
<feBlend mode="normal" in="SourceGraphic" in2="effect1_dropShadow_47_26" result="shape"/>
<feColorMatrix in="SourceAlpha" type="matrix" values="0 0 0 0 0 0 0 0 0 0 0 0 0 0 0 0 0 0 127 0" result="hardAlpha"/>
<feOffset dy="4"/>
<feGaussianBlur stdDeviation="2"/>
<feComposite in2="hardAlpha" operator="arithmetic" k2="-1" k3="1"/>
<feColorMatrix type="matrix" values="0 0 0 0 1 0 0 0 0 0.878529 0 0 0 0 0.0889648 0 0 0 0.25 0"/>
<feBlend mode="normal" in2="shape" result="effect2_innerShadow_47_26"/>
</filter>
<filter id="filter4_di_47_26" x="21.1699" y="26.7126" width="28.5332" height="28.9614" filterUnits="userSpaceOnUse" color-interpolation-filters="sRGB">
<feFlood flood-opacity="0" result="BackgroundImageFix"/>
<feColorMatrix in="SourceAlpha" type="matrix" values="0 0 0 0 0 0 0 0 0 0 0 0 0 0 0 0 0 0 127 0" result="hardAlpha"/>
<feOffset dy="4"/>
<feGaussianBlur stdDeviation="2"/>
<feComposite in2="hardAlpha" operator="out"/>
<feColorMatrix type="matrix" values="0 0 0 0 0.119515 0 0 0 0 0.119515 0 0 0 0 0.119515 0 0 0 0.25 0"/>
<feBlend mode="normal" in2="BackgroundImageFix" result="effect1_dropShadow_47_26"/>
<feBlend mode="normal" in="SourceGraphic" in2="effect1_dropShadow_47_26" result="shape"/>
<feColorMatrix in="SourceAlpha" type="matrix" values="0 0 0 0 0 0 0 0 0 0 0 0 0 0 0 0 0 0 127 0" result="hardAlpha"/>
<feOffset dy="4"/>
<feGaussianBlur stdDeviation="2"/>
<feComposite in2="hardAlpha" operator="arithmetic" k2="-1" k3="1"/>
<feColorMatrix type="matrix" values="0 0 0 0 1 0 0 0 0 0.878529 0 0 0 0 0.0889648 0 0 0 0.25 0"/>
<feBlend mode="normal" in2="shape" result="effect2_innerShadow_47_26"/>
</filter>
<radialGradient id="paint0_radial_47_26" cx="0" cy="0" r="1" gradientUnits="userSpaceOnUse" gradientTransform="translate(35 35) rotate(90) scale(35)">
<stop offset="0.401398" stop-color="#FFE33C"/>
<stop offset="1" stop-color="white"/>
</radialGradient>
<radialGradient id="paint1_diamond_47_26" cx="0" cy="0" r="1" gradientUnits="userSpaceOnUse" gradientTransform="translate(35 35) rotate(90) scale(35)">
<stop stop-color="white" stop-opacity="0"/>
<stop offset="0.904181" stop-color="#F1D32D"/>
</radialGradient>
<radialGradient id="paint2_radial_47_26" cx="0" cy="0" r="1" gradientUnits="userSpaceOnUse" gradientTransform="translate(35 35.5646) rotate(90) scale(17.5)">
<stop stop-color="white"/>
<stop offset="1" stop-color="#F6D71C"/>
</radialGradient>
<radialGradient id="paint3_radial_47_26" cx="0" cy="0" r="1" gradientUnits="userSpaceOnUse" gradientTransform="translate(35.5464 36.1291) rotate(119.631) scale(10.0808 10.4736)">
<stop offset="0.635" stop-color="#F6D71C" stop-opacity="0.8"/>
<stop offset="1" stop-color="#F4EAA5"/>
</radialGradient>
</defs>
</svg>
