<svg width="70" height="70" viewBox="0 0 70 70" fill="none" xmlns="http://www.w3.org/2000/svg">
<g filter="url(#filter0_i_46_63)">
<path d="M22.6459 7.59963C18.1725 9.78186 13.9346 7.84621 10.4619 11.3884C7.01644 14.9029 8.84208 18.9069 6.98078 23.4436C4.87496 28.5763 -0.349555 30.3158 0.0184886 35.8433C0.365535 41.0554 5.59464 42.0653 7.67701 46.8652C9.65456 51.4235 6.95623 55.7188 10.4619 59.2649C14.1534 62.999 18.745 60.192 23.6903 62.0204C29.4562 64.1521 31.1567 70.6789 37.2668 69.9424C42.3681 69.3274 43.3952 64.1578 48.0582 62.0204C52.8483 59.8246 56.9928 62.7351 60.9385 59.2649C65.35 55.385 62.7073 50.2712 64.7678 44.7986C66.4451 40.3439 70.2246 38.5247 69.9895 33.7767C69.735 28.6344 64.8588 27.4297 62.6791 22.7548C60.3715 17.8055 62.9223 12.9923 58.8499 9.32181C54.9471 5.80429 50.5796 8.36028 45.6215 6.56633C40.5368 4.72657 38.8365 -0.37625 33.4375 0.0220653C28.284 0.402263 27.281 5.33857 22.6459 7.59963Z" fill="url(#paint0_radial_46_63)" fill-opacity="0.4"/>
<path d="M22.6459 7.59963C18.1725 9.78186 13.9346 7.84621 10.4619 11.3884C7.01644 14.9029 8.84208 18.9069 6.98078 23.4436C4.87496 28.5763 -0.349555 30.3158 0.0184886 35.8433C0.365535 41.0554 5.59464 42.0653 7.67701 46.8652C9.65456 51.4235 6.95623 55.7188 10.4619 59.2649C14.1534 62.999 18.745 60.192 23.6903 62.0204C29.4562 64.1521 31.1567 70.6789 37.2668 69.9424C42.3681 69.3274 43.3952 64.1578 48.0582 62.0204C52.8483 59.8246 56.9928 62.7351 60.9385 59.2649C65.35 55.385 62.7073 50.2712 64.7678 44.7986C66.4451 40.3439 70.2246 38.5247 69.9895 33.7767C69.735 28.6344 64.8588 27.4297 62.6791 22.7548C60.3715 17.8055 62.9223 12.9923 58.8499 9.32181C54.9471 5.80429 50.5796 8.36028 45.6215 6.56633C40.5368 4.72657 38.8365 -0.37625 33.4375 0.0220653C28.284 0.402263 27.281 5.33857 22.6459 7.59963Z" fill="url(#paint1_diamond_46_63)" fill-opacity="0.2"/>
</g>
<g filter="url(#filter1_i_46_63)">
<path d="M24.2073 12.2944C20.6037 14.158 17.1096 12.6652 14.3491 15.6163C11.6103 18.5443 13.1791 21.7679 11.7524 25.497C10.1383 29.716 5.9134 31.234 6.32427 35.726C6.71169 39.9618 10.9954 40.6817 12.7895 44.5481C14.4932 48.2198 12.3792 51.7688 15.3087 54.5868C18.3934 57.5542 22.0808 55.1797 26.1495 56.5714C30.8934 58.1939 32.4107 63.4734 37.3778 62.7546C41.5248 62.1544 42.2586 57.9264 46.0177 56.0955C49.8793 54.2146 53.3168 56.5028 56.4644 53.601C59.9835 50.3567 57.7263 46.2458 59.2966 41.751C60.5749 38.0922 63.62 36.5376 63.3332 32.6774C63.0226 28.4966 59.0227 27.6113 57.1518 23.8485C55.1711 19.8649 57.1545 15.8973 53.7604 12.9891C50.5078 10.2022 46.9981 12.368 42.9196 11.0046C38.7369 9.60634 37.2484 5.48595 32.8543 5.91561C28.66 6.32573 27.9412 10.3634 24.2073 12.2944Z" fill="url(#paint2_radial_46_63)" fill-opacity="0.4"/>
</g>
<g filter="url(#filter2_f_46_63)">
<path d="M28.7811 15.8895C25.813 16.9323 23.2985 15.4134 20.8571 17.3803C18.4349 19.3317 19.2827 21.9712 17.7782 24.6775C16.0761 27.7392 12.6698 28.4504 12.4901 31.9384C12.3207 35.2274 15.5257 36.2382 16.4753 39.3947C17.3772 42.3923 15.3657 44.8867 17.3013 47.3611C19.3395 49.9666 22.428 48.5411 25.3942 50.0439C28.8526 51.7961 29.4345 56.0064 33.3218 55.9873C36.5674 55.9714 37.5956 52.8085 40.6792 51.8075C43.847 50.7792 46.2304 52.9017 48.9632 51.0141C52.0185 48.9038 50.7406 45.5102 52.4396 42.2323C53.8225 39.5641 56.3283 38.6985 56.5335 35.7082C56.7558 32.4696 53.7867 31.3623 52.7666 28.2771C51.6868 25.0107 53.6443 22.1813 51.3624 19.5881C49.1756 17.1029 46.2462 18.3874 43.2694 16.9052C40.2166 15.3851 39.5292 12.0666 36.113 11.9253C32.8522 11.7904 31.8564 14.809 28.7811 15.8895Z" fill="#4FC3F7" fill-opacity="0.89"/>
</g>
<g filter="url(#filter3_di_46_63)">
<path d="M29.8118 21.3055C27.6556 22.2491 25.6916 21.2552 23.9815 22.8593C22.2849 24.451 23.0687 26.3743 22.1004 28.4783C21.0049 30.8587 18.5026 31.5792 18.568 34.1931C18.6296 36.6579 21.0801 37.2342 21.9696 39.5378C22.8144 41.7254 21.4554 43.6996 23.0419 45.439C24.7126 47.2707 26.9368 46.0347 29.2371 46.9916C31.9191 48.1072 32.5944 51.218 35.4953 50.9874C37.9174 50.7949 38.504 48.3765 40.7488 47.4576C43.0548 46.5136 44.9556 47.9656 46.8878 46.4044C49.048 44.6589 47.8999 42.1965 48.9807 39.6549C49.8605 37.5861 51.6817 36.8004 51.6638 34.5566C51.6445 32.1265 49.3645 31.4651 48.4266 29.2186C47.4336 26.8402 48.7331 24.619 46.8812 22.81C45.1065 21.0765 42.9931 22.1984 40.686 21.2575C38.3201 20.2926 37.617 17.8535 35.0586 17.9381C32.6166 18.0188 32.0458 20.3277 29.8118 21.3055Z" fill="url(#paint3_radial_46_63)" fill-opacity="0.4" shape-rendering="crispEdges"/>
</g>
<g filter="url(#filter4_di_46_63)">
<path d="M36.0189 27.6825C34.8701 27.7219 34.1658 26.92 33.0968 27.338C32.0362 27.7528 32.0355 28.7629 31.2095 29.54C30.275 30.4192 29.011 30.2956 28.5581 31.4888C28.131 32.614 29.1323 33.3144 29.1092 34.5153C29.0872 35.6558 28.1086 36.3041 28.5047 37.3752C28.9217 38.503 30.1552 38.3437 31.0183 39.1892C32.0247 40.175 31.7557 41.7023 33.1095 42.119C34.2397 42.4668 34.9513 41.479 36.1355 41.4667C37.352 41.4541 37.9432 42.4516 39.1047 42.0929C40.4032 41.6918 40.3387 40.3727 41.2964 39.418C42.0759 38.6408 43.044 38.6127 43.4501 37.5953C43.8899 36.4934 42.9814 35.7851 42.9721 34.6013C42.9622 33.348 43.9596 32.5774 43.4564 31.4272C42.9742 30.325 41.8119 30.4527 40.9428 29.6132C40.0515 28.7523 40.1839 27.5236 39.0119 27.1025C37.8932 26.7005 37.2091 27.6416 36.0189 27.6825Z" fill="#06A7F0"/>
</g>
<defs>
<filter id="filter0_i_46_63" x="0" y="0" width="70" height="74" filterUnits="userSpaceOnUse" color-interpolation-filters="sRGB">
<feFlood flood-opacity="0" result="BackgroundImageFix"/>
<feBlend mode="normal" in="SourceGraphic" in2="BackgroundImageFix" result="shape"/>
<feColorMatrix in="SourceAlpha" type="matrix" values="0 0 0 0 0 0 0 0 0 0 0 0 0 0 0 0 0 0 127 0" result="hardAlpha"/>
<feOffset dy="4"/>
<feGaussianBlur stdDeviation="2"/>
<feComposite in2="hardAlpha" operator="arithmetic" k2="-1" k3="1"/>
<feColorMatrix type="matrix" values="0 0 0 0 0.0296061 0 0 0 0 0.611842 0 0 0 0 1 0 0 0 0.38 0"/>
<feBlend mode="normal" in2="shape" result="effect1_innerShadow_46_63"/>
</filter>
<filter id="filter1_i_46_63" x="6.2959" y="5.8844" width="57.0566" height="60.937" filterUnits="userSpaceOnUse" color-interpolation-filters="sRGB">
<feFlood flood-opacity="0" result="BackgroundImageFix"/>
<feBlend mode="normal" in="SourceGraphic" in2="BackgroundImageFix" result="shape"/>
<feColorMatrix in="SourceAlpha" type="matrix" values="0 0 0 0 0 0 0 0 0 0 0 0 0 0 0 0 0 0 127 0" result="hardAlpha"/>
<feOffset dy="4"/>
<feGaussianBlur stdDeviation="2"/>
<feComposite in2="hardAlpha" operator="arithmetic" k2="-1" k3="1"/>
<feColorMatrix type="matrix" values="0 0 0 0 0.541176 0 0 0 0 0.780392 0 0 0 0 0.941176 0 0 0 1 0"/>
<feBlend mode="normal" in2="shape" result="effect1_innerShadow_46_63"/>
</filter>
<filter id="filter2_f_46_63" x="6.4834" y="5.9209" width="56.0615" height="56.0665" filterUnits="userSpaceOnUse" color-interpolation-filters="sRGB">
<feFlood flood-opacity="0" result="BackgroundImageFix"/>
<feBlend mode="normal" in="SourceGraphic" in2="BackgroundImageFix" result="shape"/>
<feGaussianBlur stdDeviation="3" result="effect1_foregroundBlur_46_63"/>
</filter>
<filter id="filter3_di_46_63" x="14.5664" y="17.9359" width="41.0977" height="41.0637" filterUnits="userSpaceOnUse" color-interpolation-filters="sRGB">
<feFlood flood-opacity="0" result="BackgroundImageFix"/>
<feColorMatrix in="SourceAlpha" type="matrix" values="0 0 0 0 0 0 0 0 0 0 0 0 0 0 0 0 0 0 127 0" result="hardAlpha"/>
<feOffset dy="4"/>
<feGaussianBlur stdDeviation="2"/>
<feComposite in2="hardAlpha" operator="out"/>
<feColorMatrix type="matrix" values="0 0 0 0 0.620557 0 0 0 0 0.620557 0 0 0 0 0.620557 0 0 0 0.25 0"/>
<feBlend mode="normal" in2="BackgroundImageFix" result="effect1_dropShadow_46_63"/>
<feBlend mode="normal" in="SourceGraphic" in2="effect1_dropShadow_46_63" result="shape"/>
<feColorMatrix in="SourceAlpha" type="matrix" values="0 0 0 0 0 0 0 0 0 0 0 0 0 0 0 0 0 0 127 0" result="hardAlpha"/>
<feOffset dy="4"/>
<feGaussianBlur stdDeviation="2"/>
<feComposite in2="hardAlpha" operator="arithmetic" k2="-1" k3="1"/>
<feColorMatrix type="matrix" values="0 0 0 0 1 0 0 0 0 1 0 0 0 0 1 0 0 0 0.25 0"/>
<feBlend mode="normal" in2="shape" result="effect2_innerShadow_46_63"/>
</filter>
<filter id="filter4_di_46_63" x="24.4102" y="27.0028" width="23.1885" height="23.1903" filterUnits="userSpaceOnUse" color-interpolation-filters="sRGB">
<feFlood flood-opacity="0" result="BackgroundImageFix"/>
<feColorMatrix in="SourceAlpha" type="matrix" values="0 0 0 0 0 0 0 0 0 0 0 0 0 0 0 0 0 0 127 0" result="hardAlpha"/>
<feOffset dy="4"/>
<feGaussianBlur stdDeviation="2"/>
<feComposite in2="hardAlpha" operator="out"/>
<feColorMatrix type="matrix" values="0 0 0 0 0.135144 0 0 0 0 0.291071 0 0 0 0 0.375033 0 0 0 0.25 0"/>
<feBlend mode="normal" in2="BackgroundImageFix" result="effect1_dropShadow_46_63"/>
<feBlend mode="normal" in="SourceGraphic" in2="effect1_dropShadow_46_63" result="shape"/>
<feColorMatrix in="SourceAlpha" type="matrix" values="0 0 0 0 0 0 0 0 0 0 0 0 0 0 0 0 0 0 127 0" result="hardAlpha"/>
<feOffset dy="4"/>
<feGaussianBlur stdDeviation="2"/>
<feComposite in2="hardAlpha" operator="arithmetic" k2="-1" k3="1"/>
<feColorMatrix type="matrix" values="0 0 0 0 0.552941 0 0 0 0 0.780392 0 0 0 0 0.933333 0 0 0 1 0"/>
<feBlend mode="normal" in2="shape" result="effect2_innerShadow_46_63"/>
</filter>
<radialGradient id="paint0_radial_46_63" cx="0" cy="0" r="1" gradientUnits="userSpaceOnUse" gradientTransform="translate(35 35) rotate(90) scale(35)">
<stop offset="0.466715" stop-color="#0288D1"/>
<stop offset="0.9999" stop-color="#D9D9D9"/>
</radialGradient>
<radialGradient id="paint1_diamond_46_63" cx="0" cy="0" r="1" gradientUnits="userSpaceOnUse" gradientTransform="translate(35 35) rotate(90) scale(35)">
<stop stop-color="#0088FF" stop-opacity="0.5"/>
<stop offset="0.9999" stop-color="#005CAD" stop-opacity="0.3"/>
</radialGradient>
<radialGradient id="paint2_radial_46_63" cx="0" cy="0" r="1" gradientUnits="userSpaceOnUse" gradientTransform="translate(34.8293 34.3564) rotate(88.5895) scale(28.4979 28.5452)">
<stop offset="0.466715" stop-color="#0288D1"/>
<stop offset="0.9999" stop-color="#D9D9D9"/>
</radialGradient>
<radialGradient id="paint3_radial_46_63" cx="0" cy="0" r="1" gradientUnits="userSpaceOnUse" gradientTransform="translate(35.1103 34.4644) rotate(92.3829) scale(16.5211 16.548)">
<stop offset="0.45" stop-color="#0380C4"/>
<stop offset="0.9999" stop-color="#D9D9D9"/>
</radialGradient>
</defs>
</svg>
