<svg width="71" height="74" viewBox="0 0 71 74" fill="none" xmlns="http://www.w3.org/2000/svg">
<g filter="url(#filter0_i_47_10)">
<path d="M71 35C71 54.33 49.4458 70.5 30.6528 70.5C11.8598 70.5 1 54.33 1 35C1 15.67 15.2625 0.5 34.0556 0.5C52.8486 0.5 71 15.67 71 35Z" fill="url(#paint0_radial_47_10)" fill-opacity="0.4"/>
<path d="M71 35C71 54.33 49.4458 70.5 30.6528 70.5C11.8598 70.5 1 54.33 1 35C1 15.67 15.2625 0.5 34.0556 0.5C52.8486 0.5 71 15.67 71 35Z" fill="url(#paint1_diamond_47_10)" fill-opacity="0.2"/>
</g>
<g filter="url(#filter1_di_47_10)">
<path d="M64.6804 35C64.6804 51.0163 45.7379 65.5 30.1665 65.5C14.5951 65.5 6.83317 51.0163 6.83317 35C6.83317 18.9837 17.9979 7 33.5693 7C49.1406 7 64.6804 18.9837 64.6804 35Z" fill="url(#paint2_radial_47_10)" fill-opacity="0.2" shape-rendering="crispEdges"/>
</g>
<g filter="url(#filter2_f_47_10)">
<path d="M59.819 34C59.819 46.9787 47.1594 60 34.5412 60C21.9231 60 8.77734 47.9787 8.77734 35C8.77734 22.0213 21.9231 11 34.5412 11C47.1594 11 59.819 21.0213 59.819 34Z" fill="#88D50C" fill-opacity="0.6"/>
</g>
<g filter="url(#filter3_di_47_10)">
<path d="M53.5002 34C53.5002 43.3888 41.7255 54.5 32.5974 54.5C23.4694 54.5 14.6113 40.8888 14.6113 31.5C14.6113 22.1112 24.9277 17 34.0558 17C43.1838 17 53.5002 24.6112 53.5002 34Z" fill="url(#paint3_diamond_47_10)" fill-opacity="0.3" shape-rendering="crispEdges"/>
<path d="M53.5002 34C53.5002 43.3888 41.7255 54.5 32.5974 54.5C23.4694 54.5 14.6113 40.8888 14.6113 31.5C14.6113 22.1112 24.9277 17 34.0558 17C43.1838 17 53.5002 24.6112 53.5002 34Z" fill="url(#paint4_diamond_47_10)" fill-opacity="0.3" shape-rendering="crispEdges"/>
</g>
<g filter="url(#filter4_if_47_10)">
<path d="M43.778 33.5C43.778 39.299 39.2076 47 33.5697 47C27.9318 47 18.9863 36.799 18.9863 31C18.9863 25.201 27.9318 23 33.5697 23C39.2076 23 43.778 27.701 43.778 33.5Z" fill="#A6D361"/>
</g>
<defs>
<filter id="filter0_i_47_10" x="1" y="0.5" width="70" height="74" filterUnits="userSpaceOnUse" color-interpolation-filters="sRGB">
<feFlood flood-opacity="0" result="BackgroundImageFix"/>
<feBlend mode="normal" in="SourceGraphic" in2="BackgroundImageFix" result="shape"/>
<feColorMatrix in="SourceAlpha" type="matrix" values="0 0 0 0 0 0 0 0 0 0 0 0 0 0 0 0 0 0 127 0" result="hardAlpha"/>
<feOffset dy="4"/>
<feGaussianBlur stdDeviation="2"/>
<feComposite in2="hardAlpha" operator="arithmetic" k2="-1" k3="1"/>
<feColorMatrix type="matrix" values="0 0 0 0 0.774852 0 0 0 0 0.952458 0 0 0 0 0.508443 0 0 0 1 0"/>
<feBlend mode="normal" in2="shape" result="effect1_innerShadow_47_10"/>
</filter>
<filter id="filter1_di_47_10" x="2.83301" y="7" width="65.8477" height="66.5" filterUnits="userSpaceOnUse" color-interpolation-filters="sRGB">
<feFlood flood-opacity="0" result="BackgroundImageFix"/>
<feColorMatrix in="SourceAlpha" type="matrix" values="0 0 0 0 0 0 0 0 0 0 0 0 0 0 0 0 0 0 127 0" result="hardAlpha"/>
<feOffset dy="4"/>
<feGaussianBlur stdDeviation="2"/>
<feComposite in2="hardAlpha" operator="out"/>
<feColorMatrix type="matrix" values="0 0 0 0 0 0 0 0 0 0 0 0 0 0 0 0 0 0 0.25 0"/>
<feBlend mode="normal" in2="BackgroundImageFix" result="effect1_dropShadow_47_10"/>
<feBlend mode="normal" in="SourceGraphic" in2="effect1_dropShadow_47_10" result="shape"/>
<feColorMatrix in="SourceAlpha" type="matrix" values="0 0 0 0 0 0 0 0 0 0 0 0 0 0 0 0 0 0 127 0" result="hardAlpha"/>
<feOffset dy="4"/>
<feGaussianBlur stdDeviation="2"/>
<feComposite in2="hardAlpha" operator="arithmetic" k2="-1" k3="1"/>
<feColorMatrix type="matrix" values="0 0 0 0 0.496997 0 0 0 0 1 0 0 0 0 0.0568685 0 0 0 0.25 0"/>
<feBlend mode="normal" in2="shape" result="effect2_innerShadow_47_10"/>
</filter>
<filter id="filter2_f_47_10" x="0.777344" y="3" width="67.042" height="65" filterUnits="userSpaceOnUse" color-interpolation-filters="sRGB">
<feFlood flood-opacity="0" result="BackgroundImageFix"/>
<feBlend mode="normal" in="SourceGraphic" in2="BackgroundImageFix" result="shape"/>
<feGaussianBlur stdDeviation="4" result="effect1_foregroundBlur_47_10"/>
</filter>
<filter id="filter3_di_47_10" x="10.6113" y="17" width="46.8887" height="45.5" filterUnits="userSpaceOnUse" color-interpolation-filters="sRGB">
<feFlood flood-opacity="0" result="BackgroundImageFix"/>
<feColorMatrix in="SourceAlpha" type="matrix" values="0 0 0 0 0 0 0 0 0 0 0 0 0 0 0 0 0 0 127 0" result="hardAlpha"/>
<feOffset dy="4"/>
<feGaussianBlur stdDeviation="2"/>
<feComposite in2="hardAlpha" operator="out"/>
<feColorMatrix type="matrix" values="0 0 0 0 0 0 0 0 0 0 0 0 0 0 0 0 0 0 0.25 0"/>
<feBlend mode="normal" in2="BackgroundImageFix" result="effect1_dropShadow_47_10"/>
<feBlend mode="normal" in="SourceGraphic" in2="effect1_dropShadow_47_10" result="shape"/>
<feColorMatrix in="SourceAlpha" type="matrix" values="0 0 0 0 0 0 0 0 0 0 0 0 0 0 0 0 0 0 127 0" result="hardAlpha"/>
<feOffset dy="4"/>
<feGaussianBlur stdDeviation="2"/>
<feComposite in2="hardAlpha" operator="arithmetic" k2="-1" k3="1"/>
<feColorMatrix type="matrix" values="0 0 0 0 0.538637 0 0 0 0 0.657292 0 0 0 0 0.491728 0 0 0 0.25 0"/>
<feBlend mode="normal" in2="shape" result="effect2_innerShadow_47_10"/>
</filter>
<filter id="filter4_if_47_10" x="9.98633" y="14" width="42.792" height="42" filterUnits="userSpaceOnUse" color-interpolation-filters="sRGB">
<feFlood flood-opacity="0" result="BackgroundImageFix"/>
<feBlend mode="normal" in="SourceGraphic" in2="BackgroundImageFix" result="shape"/>
<feColorMatrix in="SourceAlpha" type="matrix" values="0 0 0 0 0 0 0 0 0 0 0 0 0 0 0 0 0 0 127 0" result="hardAlpha"/>
<feOffset dy="4"/>
<feGaussianBlur stdDeviation="2"/>
<feComposite in2="hardAlpha" operator="arithmetic" k2="-1" k3="1"/>
<feColorMatrix type="matrix" values="0 0 0 0 0.300628 0 0 0 0 0.898551 0 0 0 0 0.118651 0 0 0 0.46 0"/>
<feBlend mode="normal" in2="shape" result="effect1_innerShadow_47_10"/>
<feGaussianBlur stdDeviation="4.5" result="effect2_foregroundBlur_47_10"/>
</filter>
<radialGradient id="paint0_radial_47_10" cx="0" cy="0" r="1" gradientUnits="userSpaceOnUse" gradientTransform="translate(34.0555 35) rotate(90) scale(35 34.0278)">
<stop offset="0.45" stop-color="#7FD500"/>
<stop offset="1" stop-color="white"/>
</radialGradient>
<radialGradient id="paint1_diamond_47_10" cx="0" cy="0" r="1" gradientUnits="userSpaceOnUse" gradientTransform="translate(34.0555 35) rotate(90) scale(35 34.0278)">
<stop stop-color="white" stop-opacity="0"/>
<stop offset="0.725" stop-color="#43632D"/>
</radialGradient>
<radialGradient id="paint2_radial_47_10" cx="0" cy="0" r="1" gradientUnits="userSpaceOnUse" gradientTransform="translate(33.5055 33.5) rotate(90) scale(29 28.1944)">
<stop stop-color="#D9D9D9"/>
<stop offset="1" stop-color="#7FD500" stop-opacity="0.6"/>
</radialGradient>
<radialGradient id="paint3_diamond_47_10" cx="0" cy="0" r="1" gradientUnits="userSpaceOnUse" gradientTransform="translate(34.0558 34) rotate(139.733) scale(21.6603 21.7692)">
<stop offset="0.485994" stop-color="#759544"/>
<stop offset="1" stop-color="white"/>
</radialGradient>
<radialGradient id="paint4_diamond_47_10" cx="0" cy="0" r="1" gradientUnits="userSpaceOnUse" gradientTransform="translate(34.0558 34) rotate(90) scale(24 23.3333)">
<stop offset="0.485994" stop-color="#759544"/>
<stop offset="1" stop-color="white"/>
</radialGradient>
</defs>
</svg>
