<svg width="70" height="73" viewBox="0 0 70 73" fill="none" xmlns="http://www.w3.org/2000/svg">
<g filter="url(#filter0_i_49_17)">
<path d="M33.2835 0.0354424C24.8374 0.845096 23.0435 13.5629 19.9707 15.6442C16.8978 17.7255 3.32649 17.734 0.513335 25.0093C-2.50166 32.8066 8.70508 39.5774 9.7299 43.7397C10.7547 47.902 5.77809 63.7529 13.8262 68.7136C21.5406 73.4686 32.2588 63.5108 35.3317 63.5107C38.4045 63.5106 51.0742 71.8047 57.8611 66.6325C64.6481 61.4602 59.91 46.8614 60.9333 44.7803C61.9567 42.6993 73.1644 31.0863 69.1259 22.9282C65.7494 16.1074 53.7656 16.6846 51.7168 15.6441C49.668 14.6036 42.3629 -0.834909 33.2835 0.0354424Z" fill="url(#paint0_radial_49_17)" fill-opacity="0.4"/>
<path d="M33.2835 0.0354424C24.8374 0.845096 23.0435 13.5629 19.9707 15.6442C16.8978 17.7255 3.32649 17.734 0.513335 25.0093C-2.50166 32.8066 8.70508 39.5774 9.7299 43.7397C10.7547 47.902 5.77809 63.7529 13.8262 68.7136C21.5406 73.4686 32.2588 63.5108 35.3317 63.5107C38.4045 63.5106 51.0742 71.8047 57.8611 66.6325C64.6481 61.4602 59.91 46.8614 60.9333 44.7803C61.9567 42.6993 73.1644 31.0863 69.1259 22.9282C65.7494 16.1074 53.7656 16.6846 51.7168 15.6441C49.668 14.6036 42.3629 -0.834909 33.2835 0.0354424Z" fill="url(#paint1_diamond_49_17)" fill-opacity="0.2"/>
</g>
<g filter="url(#filter1_di_49_17)">
<path d="M33.1325 5.0905C25.9935 5.78309 24.4773 16.6622 21.88 18.4426C19.2826 20.223 7.81167 20.2303 5.43389 26.4537C2.8855 33.1237 12.3579 38.9156 13.2241 42.4761C14.0903 46.0366 9.88386 59.5958 16.6864 63.8393C23.2069 67.9068 32.2664 59.3887 34.8637 59.3886C37.461 59.3885 48.1699 66.4835 53.9064 62.059C59.643 57.6346 55.6382 45.1464 56.5032 43.3662C57.3682 41.5861 66.8413 31.6521 63.4278 24.6734C60.5739 18.8388 50.4447 19.3325 48.713 18.4425C46.9813 17.5524 40.8067 4.34598 33.1325 5.0905Z" fill="#D4D4D4" fill-opacity="0.3" shape-rendering="crispEdges"/>
</g>
<g filter="url(#filter2_df_49_17)">
<path d="M33.4182 11.8312C27.6869 12.3774 26.4697 20.9582 24.3845 22.3624C22.2994 23.7666 13.0903 23.7724 11.1813 28.681C9.13545 33.9418 16.74 38.5101 17.4354 41.3184C18.1309 44.1267 14.7539 54.8213 20.2151 58.1683C25.4498 61.3764 32.7229 54.6579 34.8081 54.6579C36.8932 54.6578 45.4905 60.2538 50.0959 56.7641C54.7013 53.2744 51.4862 43.4245 52.1806 42.0205C52.8751 40.6164 60.4803 32.7811 57.7398 27.2769C55.4487 22.6749 47.3168 23.0643 45.9265 22.3623C44.5363 21.6603 39.5792 11.2439 33.4182 11.8312Z" fill="#D9D9D9" fill-opacity="0.8" shape-rendering="crispEdges"/>
</g>
<g filter="url(#filter3_di_49_17)">
<path d="M33.8276 19.4134C30.1073 19.7743 29.3171 25.4437 27.9636 26.3715C26.6101 27.2993 20.6322 27.3031 19.3931 30.5463C18.0651 34.0222 23.0014 37.0405 23.4528 38.896C23.9042 40.7515 21.7121 47.8176 25.2571 50.029C28.6551 52.1486 33.3762 47.7096 34.7298 47.7096C36.0833 47.7095 41.664 51.4069 44.6534 49.1012C47.6429 46.7955 45.5559 40.2876 46.0067 39.3599C46.4574 38.4322 51.3942 33.2553 49.6153 29.6186C48.128 26.578 42.8494 26.8353 41.947 26.3715C41.0445 25.9076 37.8268 19.0254 33.8276 19.4134Z" fill="url(#paint2_diamond_49_17)" fill-opacity="0.4" shape-rendering="crispEdges"/>
</g>
<g filter="url(#filter4_di_49_17)">
<path d="M38.4286 28.2646C36.7207 27.4572 34.9428 29.7158 34.1199 29.7681C33.297 29.8204 30.6986 28.2726 29.3395 29.3606C27.8829 30.5267 29.2639 33.1176 28.9905 34.0408C28.7171 34.9641 25.9765 37.4661 26.9572 39.3458C27.8973 41.1475 31.0719 40.4425 31.66 40.7933C32.2482 41.1441 33.7373 44.197 35.6198 43.97C37.5022 43.7431 38.2422 40.3744 38.6728 40.0882C39.1035 39.8019 42.5585 38.8321 42.7059 36.7908C42.8291 35.0842 40.4704 33.8279 40.1957 33.3924C39.921 32.957 40.2644 29.1326 38.4286 28.2646Z" fill="url(#paint3_diamond_49_17)" fill-opacity="0.4" shape-rendering="crispEdges"/>
</g>
<defs>
<filter id="filter0_i_49_17" x="0" y="0" width="70" height="74" filterUnits="userSpaceOnUse" color-interpolation-filters="sRGB">
<feFlood flood-opacity="0" result="BackgroundImageFix"/>
<feBlend mode="normal" in="SourceGraphic" in2="BackgroundImageFix" result="shape"/>
<feColorMatrix in="SourceAlpha" type="matrix" values="0 0 0 0 0 0 0 0 0 0 0 0 0 0 0 0 0 0 127 0" result="hardAlpha"/>
<feOffset dy="4"/>
<feGaussianBlur stdDeviation="2"/>
<feComposite in2="hardAlpha" operator="arithmetic" k2="-1" k3="1"/>
<feColorMatrix type="matrix" values="0 0 0 0 1 0 0 0 0 1 0 0 0 0 1 0 0 0 0.25 0"/>
<feBlend mode="normal" in2="shape" result="effect1_innerShadow_49_17"/>
</filter>
<filter id="filter1_di_49_17" x="1" y="5.06018" width="67.167" height="67.8795" filterUnits="userSpaceOnUse" color-interpolation-filters="sRGB">
<feFlood flood-opacity="0" result="BackgroundImageFix"/>
<feColorMatrix in="SourceAlpha" type="matrix" values="0 0 0 0 0 0 0 0 0 0 0 0 0 0 0 0 0 0 127 0" result="hardAlpha"/>
<feOffset dy="4"/>
<feGaussianBlur stdDeviation="2"/>
<feComposite in2="hardAlpha" operator="out"/>
<feColorMatrix type="matrix" values="0 0 0 0 0 0 0 0 0 0 0 0 0 0 0 0 0 0 0.25 0"/>
<feBlend mode="normal" in2="BackgroundImageFix" result="effect1_dropShadow_49_17"/>
<feBlend mode="normal" in="SourceGraphic" in2="effect1_dropShadow_49_17" result="shape"/>
<feColorMatrix in="SourceAlpha" type="matrix" values="0 0 0 0 0 0 0 0 0 0 0 0 0 0 0 0 0 0 127 0" result="hardAlpha"/>
<feOffset dy="4"/>
<feGaussianBlur stdDeviation="2"/>
<feComposite in2="hardAlpha" operator="arithmetic" k2="-1" k3="1"/>
<feColorMatrix type="matrix" values="0 0 0 0 0 0 0 0 0 0 0 0 0 0 0 0 0 0 0.25 0"/>
<feBlend mode="normal" in2="shape" result="effect2_innerShadow_49_17"/>
</filter>
<filter id="filter2_df_49_17" x="6.83301" y="7.80725" width="55.5" height="59.2289" filterUnits="userSpaceOnUse" color-interpolation-filters="sRGB">
<feFlood flood-opacity="0" result="BackgroundImageFix"/>
<feColorMatrix in="SourceAlpha" type="matrix" values="0 0 0 0 0 0 0 0 0 0 0 0 0 0 0 0 0 0 127 0" result="hardAlpha"/>
<feOffset dy="4"/>
<feGaussianBlur stdDeviation="2"/>
<feComposite in2="hardAlpha" operator="out"/>
<feColorMatrix type="matrix" values="0 0 0 0 0 0 0 0 0 0 0 0 0 0 0 0 0 0 0.25 0"/>
<feBlend mode="normal" in2="BackgroundImageFix" result="effect1_dropShadow_49_17"/>
<feBlend mode="normal" in="SourceGraphic" in2="effect1_dropShadow_49_17" result="shape"/>
<feGaussianBlur stdDeviation="2" result="effect2_foregroundBlur_49_17"/>
</filter>
<filter id="filter3_di_49_17" x="15.167" y="19.3976" width="38.833" height="39.2048" filterUnits="userSpaceOnUse" color-interpolation-filters="sRGB">
<feFlood flood-opacity="0" result="BackgroundImageFix"/>
<feColorMatrix in="SourceAlpha" type="matrix" values="0 0 0 0 0 0 0 0 0 0 0 0 0 0 0 0 0 0 127 0" result="hardAlpha"/>
<feOffset dy="4"/>
<feGaussianBlur stdDeviation="2"/>
<feComposite in2="hardAlpha" operator="out"/>
<feColorMatrix type="matrix" values="0 0 0 0 0 0 0 0 0 0 0 0 0 0 0 0 0 0 0.25 0"/>
<feBlend mode="normal" in2="BackgroundImageFix" result="effect1_dropShadow_49_17"/>
<feBlend mode="normal" in="SourceGraphic" in2="effect1_dropShadow_49_17" result="shape"/>
<feColorMatrix in="SourceAlpha" type="matrix" values="0 0 0 0 0 0 0 0 0 0 0 0 0 0 0 0 0 0 127 0" result="hardAlpha"/>
<feOffset dy="4"/>
<feGaussianBlur stdDeviation="2"/>
<feComposite in2="hardAlpha" operator="arithmetic" k2="-1" k3="1"/>
<feColorMatrix type="matrix" values="0 0 0 0 0 0 0 0 0 0 0 0 0 0 0 0 0 0 0.25 0"/>
<feBlend mode="normal" in2="shape" result="effect2_innerShadow_49_17"/>
</filter>
<filter id="filter4_di_49_17" x="22.7461" y="28.0905" width="23.9648" height="23.8916" filterUnits="userSpaceOnUse" color-interpolation-filters="sRGB">
<feFlood flood-opacity="0" result="BackgroundImageFix"/>
<feColorMatrix in="SourceAlpha" type="matrix" values="0 0 0 0 0 0 0 0 0 0 0 0 0 0 0 0 0 0 127 0" result="hardAlpha"/>
<feOffset dy="4"/>
<feGaussianBlur stdDeviation="2"/>
<feComposite in2="hardAlpha" operator="out"/>
<feColorMatrix type="matrix" values="0 0 0 0 0.368522 0 0 0 0 0.359729 0 0 0 0 0.359729 0 0 0 0.25 0"/>
<feBlend mode="normal" in2="BackgroundImageFix" result="effect1_dropShadow_49_17"/>
<feBlend mode="normal" in="SourceGraphic" in2="effect1_dropShadow_49_17" result="shape"/>
<feColorMatrix in="SourceAlpha" type="matrix" values="0 0 0 0 0 0 0 0 0 0 0 0 0 0 0 0 0 0 127 0" result="hardAlpha"/>
<feOffset dy="4"/>
<feGaussianBlur stdDeviation="2"/>
<feComposite in2="hardAlpha" operator="arithmetic" k2="-1" k3="1"/>
<feColorMatrix type="matrix" values="0 0 0 0 0.715462 0 0 0 0 0.715462 0 0 0 0 0.715462 0 0 0 0.25 0"/>
<feBlend mode="normal" in2="shape" result="effect2_innerShadow_49_17"/>
</filter>
<radialGradient id="paint0_radial_49_17" cx="0" cy="0" r="1" gradientUnits="userSpaceOnUse" gradientTransform="translate(35 35) rotate(90) scale(35)">
<stop stop-color="white"/>
<stop offset="1" stop-color="#5A5A5A"/>
</radialGradient>
<radialGradient id="paint1_diamond_49_17" cx="0" cy="0" r="1" gradientUnits="userSpaceOnUse" gradientTransform="translate(35 35) rotate(90) scale(35)">
<stop stop-opacity="0"/>
<stop offset="1"/>
</radialGradient>
<radialGradient id="paint2_diamond_49_17" cx="0" cy="0" r="1" gradientUnits="userSpaceOnUse" gradientTransform="translate(34.5837 35) rotate(90) scale(15.6024 15.4167)">
<stop stop-color="#737373"/>
<stop offset="1" stop-color="#D9D9D9"/>
</radialGradient>
<radialGradient id="paint3_diamond_49_17" cx="0" cy="0" r="1" gradientUnits="userSpaceOnUse" gradientTransform="translate(34.8128 35.233) rotate(120.217) scale(7.84524 7.79944)">
<stop stop-color="#D9D9D9"/>
<stop offset="0.96" stop-color="#737373"/>
</radialGradient>
</defs>
</svg>
