<svg width="70" height="71" viewBox="0 0 70 71" fill="none" xmlns="http://www.w3.org/2000/svg">
<g filter="url(#filter0_i_47_33)">
<path d="M36.3632 69.9866C31.8193 70.4441 27.2754 59.0083 27.2754 59.0083C27.2754 59.0083 14.5528 65.4123 10.9176 62.2103C7.28237 59.0083 12.7351 46.6578 12.7351 46.6578C12.7351 46.6578 0.46681 41.1686 0.0123152 37.5092C-0.44218 33.8497 11.8263 26.9883 11.8263 26.9883C11.8263 26.9883 6.37371 14.6377 9.10003 11.8932C11.8263 9.14858 24.5491 13.7229 24.5491 13.7229C24.5491 13.7229 29.093 0 33.1825 0C37.2719 0 42.7245 11.4357 42.7245 11.4357C42.7245 11.4357 55.9017 5.48915 58.1737 7.77629C60.4456 10.0634 56.3561 23.3289 56.3561 23.3289C56.3561 23.3289 69.5333 27.4457 69.9877 32.4775C70.4421 37.5092 58.1737 42.9983 58.1737 42.9983C58.1737 42.9983 64.0807 55.3489 61.3544 58.5509C58.628 61.7529 45.9052 57.6361 45.9052 57.6361C45.9052 57.6361 40.907 69.5292 36.3632 69.9866Z" fill="#F7F7F7" fill-opacity="0.2"/>
<path d="M36.3632 69.9866C31.8193 70.4441 27.2754 59.0083 27.2754 59.0083C27.2754 59.0083 14.5528 65.4123 10.9176 62.2103C7.28237 59.0083 12.7351 46.6578 12.7351 46.6578C12.7351 46.6578 0.46681 41.1686 0.0123152 37.5092C-0.44218 33.8497 11.8263 26.9883 11.8263 26.9883C11.8263 26.9883 6.37371 14.6377 9.10003 11.8932C11.8263 9.14858 24.5491 13.7229 24.5491 13.7229C24.5491 13.7229 29.093 0 33.1825 0C37.2719 0 42.7245 11.4357 42.7245 11.4357C42.7245 11.4357 55.9017 5.48915 58.1737 7.77629C60.4456 10.0634 56.3561 23.3289 56.3561 23.3289C56.3561 23.3289 69.5333 27.4457 69.9877 32.4775C70.4421 37.5092 58.1737 42.9983 58.1737 42.9983C58.1737 42.9983 64.0807 55.3489 61.3544 58.5509C58.628 61.7529 45.9052 57.6361 45.9052 57.6361C45.9052 57.6361 40.907 69.5292 36.3632 69.9866Z" fill="url(#paint0_radial_47_33)" fill-opacity="0.3"/>
</g>
<g filter="url(#filter1_di_47_33)">
<path d="M18.188 47.5726C18.188 47.5726 16.8248 58.5509 20.0055 60.3806C23.1862 62.2103 32.7283 55.3489 32.7283 55.3489C32.7283 55.3489 39.9985 63.1252 42.7248 62.6678C45.4511 62.2103 46.8142 51.6895 46.8142 51.6895C46.8142 51.6895 58.6283 52.1469 59.9914 49.4023C61.3546 46.6577 54.9932 37.5092 54.9932 37.5092C54.9932 37.5092 63.1721 30.6477 62.7177 26.9883C62.2634 23.3289 50.4493 22.414 50.4493 22.414C50.4493 22.414 51.8124 10.9783 48.6318 9.14857C45.4511 7.31884 36.3634 14.6377 36.3634 14.6377C36.3634 14.6377 29.0931 6.86143 26.3669 7.31886C23.6407 7.77628 21.823 18.7546 21.823 18.7546C21.823 18.7546 10.4635 17.8397 9.10024 20.5843C7.73701 23.3289 13.6441 32.9349 13.6441 32.9349C13.6441 32.9349 6.37401 39.3389 7.2827 42.5409C8.1914 45.7429 18.188 47.5726 18.188 47.5726Z" fill="url(#paint1_radial_47_33)" fill-opacity="0.5" shape-rendering="crispEdges"/>
<path d="M18.188 47.5726C18.188 47.5726 16.8248 58.5509 20.0055 60.3806C23.1862 62.2103 32.7283 55.3489 32.7283 55.3489C32.7283 55.3489 39.9985 63.1252 42.7248 62.6678C45.4511 62.2103 46.8142 51.6895 46.8142 51.6895C46.8142 51.6895 58.6283 52.1469 59.9914 49.4023C61.3546 46.6577 54.9932 37.5092 54.9932 37.5092C54.9932 37.5092 63.1721 30.6477 62.7177 26.9883C62.2634 23.3289 50.4493 22.414 50.4493 22.414C50.4493 22.414 51.8124 10.9783 48.6318 9.14857C45.4511 7.31884 36.3634 14.6377 36.3634 14.6377C36.3634 14.6377 29.0931 6.86143 26.3669 7.31886C23.6407 7.77628 21.823 18.7546 21.823 18.7546C21.823 18.7546 10.4635 17.8397 9.10024 20.5843C7.73701 23.3289 13.6441 32.9349 13.6441 32.9349C13.6441 32.9349 6.37401 39.3389 7.2827 42.5409C8.1914 45.7429 18.188 47.5726 18.188 47.5726Z" fill="url(#paint2_diamond_47_33)" fill-opacity="0.3" shape-rendering="crispEdges"/>
</g>
<g filter="url(#filter2_di_47_33)">
<path d="M34.0918 16.9249C31.1931 17.1874 29.5479 22.8715 29.5479 22.8715C29.5479 22.8715 23.8776 19.7042 21.8234 21.9566C19.7275 24.2547 23.6409 29.7329 23.6409 29.7329C23.6409 29.7329 16.3709 32.4775 16.8251 35.2221C17.2793 37.9666 23.6409 39.3389 23.6409 39.3389C23.6409 39.3389 20.0058 45.7429 21.8234 47.5726C23.6409 49.4024 30.0023 46.2004 30.0023 46.2004C30.0023 46.2004 32.7286 53.5192 35.4549 53.5192C38.1812 53.5192 39.5444 45.7429 39.5444 45.7429C39.5444 45.7429 47.2689 48.9449 48.6321 47.5726C49.9953 46.2004 46.8146 39.3389 46.8146 39.3389C46.8146 39.3389 52.267 36.1369 52.2672 33.8498C52.2674 31.5626 45.9058 29.7329 45.9058 29.7329C45.9058 29.7329 49.05 24.0267 46.8146 21.9566C44.7087 20.0066 39.5444 22.8715 39.5444 22.8715C39.5444 22.8715 37.2185 16.6417 34.0918 16.9249Z" fill="url(#paint3_diamond_47_33)" fill-opacity="0.3" shape-rendering="crispEdges"/>
<path d="M34.0918 16.9249C31.1931 17.1874 29.5479 22.8715 29.5479 22.8715C29.5479 22.8715 23.8776 19.7042 21.8234 21.9566C19.7275 24.2547 23.6409 29.7329 23.6409 29.7329C23.6409 29.7329 16.3709 32.4775 16.8251 35.2221C17.2793 37.9666 23.6409 39.3389 23.6409 39.3389C23.6409 39.3389 20.0058 45.7429 21.8234 47.5726C23.6409 49.4024 30.0023 46.2004 30.0023 46.2004C30.0023 46.2004 32.7286 53.5192 35.4549 53.5192C38.1812 53.5192 39.5444 45.7429 39.5444 45.7429C39.5444 45.7429 47.2689 48.9449 48.6321 47.5726C49.9953 46.2004 46.8146 39.3389 46.8146 39.3389C46.8146 39.3389 52.267 36.1369 52.2672 33.8498C52.2674 31.5626 45.9058 29.7329 45.9058 29.7329C45.9058 29.7329 49.05 24.0267 46.8146 21.9566C44.7087 20.0066 39.5444 22.8715 39.5444 22.8715C39.5444 22.8715 37.2185 16.6417 34.0918 16.9249Z" fill="url(#paint4_diamond_47_33)" fill-opacity="0.7" shape-rendering="crispEdges"/>
</g>
<g filter="url(#filter3_di_47_33)">
<path d="M28.3458 38.2528C27.896 37.412 29.7275 35.6171 29.7275 35.6171C29.7275 35.6171 27.4852 33.674 27.8097 32.7151C28.1342 31.7563 30.9379 31.8184 30.9379 31.8184C30.9379 31.8184 31.0131 29.0089 31.6789 28.6276C32.3446 28.2462 34.6385 30.0649 34.6385 30.0649C34.6385 30.0649 36.5731 28.0211 37.3169 28.3274C38.0606 28.6337 38.1971 31.4575 38.1971 31.4575C38.1971 31.4575 41.1915 31.2341 41.5174 32.0238C41.8433 32.8135 40.0842 34.7839 40.0842 34.7839C40.0842 34.7839 42.275 36.8514 42.0174 37.4737C41.7597 38.0959 38.8892 38.3704 38.8892 38.3704C38.8892 38.3704 39.1496 41.2453 38.2206 41.7367C37.2916 42.2282 35.261 40.2994 35.261 40.2994C35.261 40.2994 33.3626 42.4309 32.5311 42.1613C31.6996 41.8917 31.4754 39.1046 31.4754 39.1046C31.4754 39.1046 28.7957 39.0935 28.3458 38.2528Z" fill="#A29BFE" fill-opacity="0.5" shape-rendering="crispEdges"/>
<path d="M28.3458 38.2528C27.896 37.412 29.7275 35.6171 29.7275 35.6171C29.7275 35.6171 27.4852 33.674 27.8097 32.7151C28.1342 31.7563 30.9379 31.8184 30.9379 31.8184C30.9379 31.8184 31.0131 29.0089 31.6789 28.6276C32.3446 28.2462 34.6385 30.0649 34.6385 30.0649C34.6385 30.0649 36.5731 28.0211 37.3169 28.3274C38.0606 28.6337 38.1971 31.4575 38.1971 31.4575C38.1971 31.4575 41.1915 31.2341 41.5174 32.0238C41.8433 32.8135 40.0842 34.7839 40.0842 34.7839C40.0842 34.7839 42.275 36.8514 42.0174 37.4737C41.7597 38.0959 38.8892 38.3704 38.8892 38.3704C38.8892 38.3704 39.1496 41.2453 38.2206 41.7367C37.2916 42.2282 35.261 40.2994 35.261 40.2994C35.261 40.2994 33.3626 42.4309 32.5311 42.1613C31.6996 41.8917 31.4754 39.1046 31.4754 39.1046C31.4754 39.1046 28.7957 39.0935 28.3458 38.2528Z" fill="url(#paint5_radial_47_33)" fill-opacity="0.5" shape-rendering="crispEdges"/>
</g>
<defs>
<filter id="filter0_i_47_33" x="0" y="0" width="70" height="74" filterUnits="userSpaceOnUse" color-interpolation-filters="sRGB">
<feFlood flood-opacity="0" result="BackgroundImageFix"/>
<feBlend mode="normal" in="SourceGraphic" in2="BackgroundImageFix" result="shape"/>
<feColorMatrix in="SourceAlpha" type="matrix" values="0 0 0 0 0 0 0 0 0 0 0 0 0 0 0 0 0 0 127 0" result="hardAlpha"/>
<feOffset dy="4"/>
<feGaussianBlur stdDeviation="2"/>
<feComposite in2="hardAlpha" operator="arithmetic" k2="-1" k3="1"/>
<feColorMatrix type="matrix" values="0 0 0 0 0.560784 0 0 0 0 0.509804 0 0 0 0 1 0 0 0 1 0"/>
<feBlend mode="normal" in2="shape" result="effect1_innerShadow_47_33"/>
</filter>
<filter id="filter1_di_47_33" x="3.2041" y="7.29944" width="63.5322" height="63.3877" filterUnits="userSpaceOnUse" color-interpolation-filters="sRGB">
<feFlood flood-opacity="0" result="BackgroundImageFix"/>
<feColorMatrix in="SourceAlpha" type="matrix" values="0 0 0 0 0 0 0 0 0 0 0 0 0 0 0 0 0 0 127 0" result="hardAlpha"/>
<feOffset dy="4"/>
<feGaussianBlur stdDeviation="2"/>
<feComposite in2="hardAlpha" operator="out"/>
<feColorMatrix type="matrix" values="0 0 0 0 0.0902995 0 0 0 0 0.0812093 0 0 0 0 0.0812093 0 0 0 0.25 0"/>
<feBlend mode="normal" in2="BackgroundImageFix" result="effect1_dropShadow_47_33"/>
<feBlend mode="normal" in="SourceGraphic" in2="effect1_dropShadow_47_33" result="shape"/>
<feColorMatrix in="SourceAlpha" type="matrix" values="0 0 0 0 0 0 0 0 0 0 0 0 0 0 0 0 0 0 127 0" result="hardAlpha"/>
<feOffset dy="4"/>
<feGaussianBlur stdDeviation="2"/>
<feComposite in2="hardAlpha" operator="arithmetic" k2="-1" k3="1"/>
<feColorMatrix type="matrix" values="0 0 0 0 0.560784 0 0 0 0 0.509804 0 0 0 0 1 0 0 0 1 0"/>
<feBlend mode="normal" in2="shape" result="effect2_innerShadow_47_33"/>
</filter>
<filter id="filter2_di_47_33" x="12.8047" y="16.9155" width="43.4629" height="44.6036" filterUnits="userSpaceOnUse" color-interpolation-filters="sRGB">
<feFlood flood-opacity="0" result="BackgroundImageFix"/>
<feColorMatrix in="SourceAlpha" type="matrix" values="0 0 0 0 0 0 0 0 0 0 0 0 0 0 0 0 0 0 127 0" result="hardAlpha"/>
<feOffset dy="4"/>
<feGaussianBlur stdDeviation="2"/>
<feComposite in2="hardAlpha" operator="out"/>
<feColorMatrix type="matrix" values="0 0 0 0 0.0645833 0 0 0 0 0.058598 0 0 0 0 0.058598 0 0 0 0.25 0"/>
<feBlend mode="normal" in2="BackgroundImageFix" result="effect1_dropShadow_47_33"/>
<feBlend mode="normal" in="SourceGraphic" in2="effect1_dropShadow_47_33" result="shape"/>
<feColorMatrix in="SourceAlpha" type="matrix" values="0 0 0 0 0 0 0 0 0 0 0 0 0 0 0 0 0 0 127 0" result="hardAlpha"/>
<feOffset dy="4"/>
<feGaussianBlur stdDeviation="2"/>
<feComposite in2="hardAlpha" operator="arithmetic" k2="-1" k3="1"/>
<feColorMatrix type="matrix" values="0 0 0 0 0.559184 0 0 0 0 0.507926 0 0 0 0 1 0 0 0 1 0"/>
<feBlend mode="normal" in2="shape" result="effect2_innerShadow_47_33"/>
</filter>
<filter id="filter3_di_47_33" x="23.7773" y="28.2961" width="22.2607" height="21.8888" filterUnits="userSpaceOnUse" color-interpolation-filters="sRGB">
<feFlood flood-opacity="0" result="BackgroundImageFix"/>
<feColorMatrix in="SourceAlpha" type="matrix" values="0 0 0 0 0 0 0 0 0 0 0 0 0 0 0 0 0 0 127 0" result="hardAlpha"/>
<feOffset dy="4"/>
<feGaussianBlur stdDeviation="2"/>
<feComposite in2="hardAlpha" operator="out"/>
<feColorMatrix type="matrix" values="0 0 0 0 0.174577 0 0 0 0 0.169428 0 0 0 0 0.169428 0 0 0 0.25 0"/>
<feBlend mode="normal" in2="BackgroundImageFix" result="effect1_dropShadow_47_33"/>
<feBlend mode="normal" in="SourceGraphic" in2="effect1_dropShadow_47_33" result="shape"/>
<feColorMatrix in="SourceAlpha" type="matrix" values="0 0 0 0 0 0 0 0 0 0 0 0 0 0 0 0 0 0 127 0" result="hardAlpha"/>
<feOffset dy="4"/>
<feGaussianBlur stdDeviation="2"/>
<feComposite in2="hardAlpha" operator="arithmetic" k2="-1" k3="1"/>
<feColorMatrix type="matrix" values="0 0 0 0 0.560784 0 0 0 0 0.509804 0 0 0 0 1 0 0 0 0.25 0"/>
<feBlend mode="normal" in2="shape" result="effect2_innerShadow_47_33"/>
</filter>
<radialGradient id="paint0_radial_47_33" cx="0" cy="0" r="1" gradientUnits="userSpaceOnUse" gradientTransform="translate(35 35) rotate(90) scale(35 34.7671)">
<stop stop-color="#8D87D8"/>
<stop offset="1" stop-color="#291EB3"/>
</radialGradient>
<radialGradient id="paint1_radial_47_33" cx="0" cy="0" r="1" gradientUnits="userSpaceOnUse" gradientTransform="translate(34.97 34.9933) rotate(90) scale(27.6939 27.7659)">
<stop stop-color="#665FC7" stop-opacity="0.69"/>
<stop offset="1" stop-color="white" stop-opacity="0.4"/>
</radialGradient>
<radialGradient id="paint2_diamond_47_33" cx="0" cy="0" r="1" gradientUnits="userSpaceOnUse" gradientTransform="translate(34.97 34.9933) rotate(90) scale(27.6939 27.7659)">
<stop stop-color="#3A3598" stop-opacity="0.4"/>
<stop offset="1" stop-color="#6C5CE7" stop-opacity="0.53"/>
</radialGradient>
<radialGradient id="paint3_diamond_47_33" cx="0" cy="0" r="1" gradientUnits="userSpaceOnUse" gradientTransform="translate(34.5359 35.2174) rotate(170.681) scale(19.8022 19.4359)">
<stop offset="0.10577" stop-color="#6C5CE7" stop-opacity="0.8"/>
<stop offset="0.327529" stop-color="#5E53D2" stop-opacity="0.55"/>
<stop offset="1" stop-color="#7872E0" stop-opacity="0.7"/>
</radialGradient>
<radialGradient id="paint4_diamond_47_33" cx="0" cy="0" r="1" gradientUnits="userSpaceOnUse" gradientTransform="translate(34.5359 35.2174) rotate(68.5915) scale(18.2855 17.7471)">
<stop offset="0.10577" stop-color="#6C5CE7" stop-opacity="0.8"/>
<stop offset="0.365" stop-color="#5E53D2" stop-opacity="0.55"/>
<stop offset="0.75" stop-color="#F2F1FB" stop-opacity="0.3"/>
</radialGradient>
<radialGradient id="paint5_radial_47_33" cx="0" cy="0" r="1" gradientUnits="userSpaceOnUse" gradientTransform="translate(34.9485 35.1827) rotate(157.304) scale(7.27736 7.26299)">
<stop stop-color="#130F46" stop-opacity="0.7"/>
<stop offset="1" stop-color="#756BF1" stop-opacity="0.7"/>
</radialGradient>
</defs>
</svg>
