<svg width="70" height="72" viewBox="0 0 70 72" fill="none" xmlns="http://www.w3.org/2000/svg">
<g filter="url(#filter0_i_47_54)">
<path d="M34.0894 0.0653329C20.0714 1.30826 20.0715 15.7258 20.0715 15.7258C20.0715 15.7258 2.42812 12.4943 0.252961 27.1604C-1.92219 41.8265 10.6456 45.5552 10.6456 45.5552C10.6456 45.5552 3.15327 54.504 11.854 65.4415C20.5548 76.3789 35.2979 64.1986 35.2979 64.1986C35.2979 64.1986 49.0741 75.3846 58.0167 66.1872C66.9592 56.9898 59.9502 45.5552 59.9502 45.5552C59.9502 45.5552 73.9681 36.1092 68.8927 24.1774C63.8172 12.2457 50.2826 15.7258 50.2826 15.7258C50.2826 15.7258 48.1075 -1.17759 34.0894 0.0653329Z" fill="url(#paint0_radial_47_54)" fill-opacity="0.4"/>
<path d="M34.0894 0.0653329C20.0714 1.30826 20.0715 15.7258 20.0715 15.7258C20.0715 15.7258 2.42812 12.4943 0.252961 27.1604C-1.92219 41.8265 10.6456 45.5552 10.6456 45.5552C10.6456 45.5552 3.15327 54.504 11.854 65.4415C20.5548 76.3789 35.2979 64.1986 35.2979 64.1986C35.2979 64.1986 49.0741 75.3846 58.0167 66.1872C66.9592 56.9898 59.9502 45.5552 59.9502 45.5552C59.9502 45.5552 73.9681 36.1092 68.8927 24.1774C63.8172 12.2457 50.2826 15.7258 50.2826 15.7258C50.2826 15.7258 48.1075 -1.17759 34.0894 0.0653329Z" fill="url(#paint1_diamond_47_54)" fill-opacity="0.2"/>
</g>
<g filter="url(#filter1_di_47_54)">
<path d="M33.7436 6.51482C22.4455 7.52828 22.4456 19.2841 22.4456 19.2841C22.4456 19.2841 8.22554 16.6492 6.47243 28.6077C4.71932 40.5662 14.8486 43.6065 14.8486 43.6065C14.8486 43.6065 8.81 50.9033 15.8226 59.8215C22.8351 68.7397 34.7176 58.8081 34.7176 58.8081C34.7176 58.8081 45.8208 67.929 53.0282 60.4296C60.2357 52.9302 54.5866 43.6065 54.5866 43.6065C54.5866 43.6065 65.8846 35.9044 61.794 26.1755C57.7033 16.4465 46.7948 19.2841 46.7948 19.2841C46.7948 19.2841 45.0417 5.50136 33.7436 6.51482Z" fill="#EB8CC8" fill-opacity="0.3" shape-rendering="crispEdges"/>
</g>
<g filter="url(#filter2_df_47_54)">
<path d="M34.4154 12.9643C25.4188 13.7483 25.4188 22.8424 25.4188 22.8424C25.4188 22.8424 14.0955 20.8041 12.6995 30.055C11.3035 39.306 19.3694 41.6579 19.3694 41.6579C19.3694 41.6579 14.5609 47.3026 20.1449 54.2016C25.729 61.1006 35.191 53.4176 35.191 53.4176C35.191 53.4176 44.0324 60.4734 49.7717 54.6719C55.5109 48.8705 51.0126 41.6579 51.0126 41.6579C51.0126 41.6579 60.0092 35.6997 56.7518 28.1735C53.4944 20.6473 44.808 22.8424 44.808 22.8424C44.808 22.8424 43.412 12.1803 34.4154 12.9643Z" fill="#EC199E" fill-opacity="0.5" shape-rendering="crispEdges"/>
</g>
<g filter="url(#filter3_di_47_54)">
<path d="M34.5784 19.4148C28.0924 19.9885 28.0925 26.6427 28.0925 26.6427C28.0925 26.6427 19.9291 25.1512 18.9227 31.9202C17.9163 38.6892 23.7312 40.4101 23.7312 40.4101C23.7312 40.4101 20.2646 44.5403 24.2904 49.5884C28.3161 54.6365 35.1375 49.0148 35.1375 49.0148C35.1375 49.0148 41.5116 54.1775 45.6492 49.9326C49.7868 45.6876 46.5438 40.4101 46.5438 40.4101C46.5438 40.4101 53.0297 36.0504 50.6814 30.5435C48.333 25.0365 42.0708 26.6427 42.0708 26.6427C42.0708 26.6427 41.0643 18.8411 34.5784 19.4148Z" fill="url(#paint2_radial_47_54)" fill-opacity="0.47" shape-rendering="crispEdges"/>
</g>
<g filter="url(#filter4_di_47_54)">
<path d="M40.9415 28.8424C37.8258 26.6378 35.511 29.5576 35.511 29.5576C35.511 29.5576 32.3595 25.8115 29.5522 28.4005C26.745 30.9895 28.7608 33.9469 28.7608 33.9469C28.7608 33.9469 25.7654 34.4463 25.8194 38.186C25.8733 41.9257 30.896 42.0424 30.896 42.0424C30.896 42.0424 31.9659 46.7217 35.3029 46.4261C38.6399 46.1305 39.0177 42.5866 39.0177 42.5866C39.0177 42.5866 43.4504 43.1299 44.3103 39.8242C45.1702 36.5184 41.7958 34.8515 41.7958 34.8515C41.7958 34.8515 44.0572 31.0471 40.9415 28.8424Z" fill="url(#paint3_radial_47_54)" fill-opacity="0.47" shape-rendering="crispEdges"/>
</g>
<defs>
<filter id="filter0_i_47_54" x="0" y="0" width="70" height="74" filterUnits="userSpaceOnUse" color-interpolation-filters="sRGB">
<feFlood flood-opacity="0" result="BackgroundImageFix"/>
<feBlend mode="normal" in="SourceGraphic" in2="BackgroundImageFix" result="shape"/>
<feColorMatrix in="SourceAlpha" type="matrix" values="0 0 0 0 0 0 0 0 0 0 0 0 0 0 0 0 0 0 127 0" result="hardAlpha"/>
<feOffset dy="4"/>
<feGaussianBlur stdDeviation="2"/>
<feComposite in2="hardAlpha" operator="arithmetic" k2="-1" k3="1"/>
<feColorMatrix type="matrix" values="0 0 0 0 1 0 0 0 0 1 0 0 0 0 1 0 0 0 0.45 0"/>
<feBlend mode="normal" in2="shape" result="effect1_innerShadow_47_54"/>
</filter>
<filter id="filter1_di_47_54" x="2.26855" y="6.46155" width="64.418" height="65.0769" filterUnits="userSpaceOnUse" color-interpolation-filters="sRGB">
<feFlood flood-opacity="0" result="BackgroundImageFix"/>
<feColorMatrix in="SourceAlpha" type="matrix" values="0 0 0 0 0 0 0 0 0 0 0 0 0 0 0 0 0 0 127 0" result="hardAlpha"/>
<feOffset dy="4"/>
<feGaussianBlur stdDeviation="2"/>
<feComposite in2="hardAlpha" operator="out"/>
<feColorMatrix type="matrix" values="0 0 0 0 0 0 0 0 0 0 0 0 0 0 0 0 0 0 0.25 0"/>
<feBlend mode="normal" in2="BackgroundImageFix" result="effect1_dropShadow_47_54"/>
<feBlend mode="normal" in="SourceGraphic" in2="effect1_dropShadow_47_54" result="shape"/>
<feColorMatrix in="SourceAlpha" type="matrix" values="0 0 0 0 0 0 0 0 0 0 0 0 0 0 0 0 0 0 127 0" result="hardAlpha"/>
<feOffset dy="4"/>
<feGaussianBlur stdDeviation="2"/>
<feComposite in2="hardAlpha" operator="arithmetic" k2="-1" k3="1"/>
<feColorMatrix type="matrix" values="0 0 0 0 1 0 0 0 0 1 0 0 0 0 1 0 0 0 0.25 0"/>
<feBlend mode="normal" in2="shape" result="effect2_innerShadow_47_54"/>
</filter>
<filter id="filter2_df_47_54" x="2.53711" y="2.9231" width="64.9258" height="64.1538" filterUnits="userSpaceOnUse" color-interpolation-filters="sRGB">
<feFlood flood-opacity="0" result="BackgroundImageFix"/>
<feColorMatrix in="SourceAlpha" type="matrix" values="0 0 0 0 0 0 0 0 0 0 0 0 0 0 0 0 0 0 127 0" result="hardAlpha"/>
<feOffset dy="4"/>
<feGaussianBlur stdDeviation="2"/>
<feComposite in2="hardAlpha" operator="out"/>
<feColorMatrix type="matrix" values="0 0 0 0 1 0 0 0 0 1 0 0 0 0 1 0 0 0 0.84 0"/>
<feBlend mode="normal" in2="BackgroundImageFix" result="effect1_dropShadow_47_54"/>
<feBlend mode="normal" in="SourceGraphic" in2="effect1_dropShadow_47_54" result="shape"/>
<feGaussianBlur stdDeviation="5" result="effect2_foregroundBlur_47_54"/>
</filter>
<filter id="filter3_di_47_54" x="14.8057" y="19.3846" width="40.3877" height="40.3077" filterUnits="userSpaceOnUse" color-interpolation-filters="sRGB">
<feFlood flood-opacity="0" result="BackgroundImageFix"/>
<feColorMatrix in="SourceAlpha" type="matrix" values="0 0 0 0 0 0 0 0 0 0 0 0 0 0 0 0 0 0 127 0" result="hardAlpha"/>
<feOffset dy="4"/>
<feGaussianBlur stdDeviation="2"/>
<feComposite in2="hardAlpha" operator="out"/>
<feColorMatrix type="matrix" values="0 0 0 0 0 0 0 0 0 0 0 0 0 0 0 0 0 0 0.25 0"/>
<feBlend mode="normal" in2="BackgroundImageFix" result="effect1_dropShadow_47_54"/>
<feBlend mode="normal" in="SourceGraphic" in2="effect1_dropShadow_47_54" result="shape"/>
<feColorMatrix in="SourceAlpha" type="matrix" values="0 0 0 0 0 0 0 0 0 0 0 0 0 0 0 0 0 0 127 0" result="hardAlpha"/>
<feOffset dy="4"/>
<feGaussianBlur stdDeviation="2"/>
<feComposite in2="hardAlpha" operator="arithmetic" k2="-1" k3="1"/>
<feColorMatrix type="matrix" values="0 0 0 0 0.966585 0 0 0 0 0.943915 0 0 0 0 0.943915 0 0 0 0.25 0"/>
<feBlend mode="normal" in2="shape" result="effect2_innerShadow_47_54"/>
</filter>
<filter id="filter4_di_47_54" x="21.8184" y="27.4885" width="26.6318" height="26.951" filterUnits="userSpaceOnUse" color-interpolation-filters="sRGB">
<feFlood flood-opacity="0" result="BackgroundImageFix"/>
<feColorMatrix in="SourceAlpha" type="matrix" values="0 0 0 0 0 0 0 0 0 0 0 0 0 0 0 0 0 0 127 0" result="hardAlpha"/>
<feOffset dy="4"/>
<feGaussianBlur stdDeviation="2"/>
<feComposite in2="hardAlpha" operator="out"/>
<feColorMatrix type="matrix" values="0 0 0 0 0 0 0 0 0 0 0 0 0 0 0 0 0 0 0.25 0"/>
<feBlend mode="normal" in2="BackgroundImageFix" result="effect1_dropShadow_47_54"/>
<feBlend mode="normal" in="SourceGraphic" in2="effect1_dropShadow_47_54" result="shape"/>
<feColorMatrix in="SourceAlpha" type="matrix" values="0 0 0 0 0 0 0 0 0 0 0 0 0 0 0 0 0 0 127 0" result="hardAlpha"/>
<feOffset dy="4"/>
<feGaussianBlur stdDeviation="2"/>
<feComposite in2="hardAlpha" operator="arithmetic" k2="-1" k3="1"/>
<feColorMatrix type="matrix" values="0 0 0 0 0.823529 0 0 0 0 0.329412 0 0 0 0 0.643137 0 0 0 1 0"/>
<feBlend mode="normal" in2="shape" result="effect2_innerShadow_47_54"/>
</filter>
<radialGradient id="paint0_radial_47_54" cx="0" cy="0" r="1" gradientUnits="userSpaceOnUse" gradientTransform="translate(35 35) rotate(90) scale(35)">
<stop stop-color="white"/>
<stop offset="0.84" stop-color="#C71585"/>
</radialGradient>
<radialGradient id="paint1_diamond_47_54" cx="0" cy="0" r="1" gradientUnits="userSpaceOnUse" gradientTransform="translate(35 35) rotate(90) scale(35)">
<stop stop-color="#9E3075" stop-opacity="0"/>
<stop offset="1" stop-color="white"/>
</radialGradient>
<radialGradient id="paint2_radial_47_54" cx="0" cy="0" r="1" gradientUnits="userSpaceOnUse" gradientTransform="translate(34.9997 35.5385) rotate(90) scale(16.1538 16.194)">
<stop stop-color="#C71585"/>
<stop offset="1" stop-color="#F2CBF2"/>
</radialGradient>
<radialGradient id="paint3_radial_47_54" cx="0" cy="0" r="1" gradientUnits="userSpaceOnUse" gradientTransform="translate(35.522 36.0769) rotate(128.407) scale(9.04543 9.51569)">
<stop offset="0.735" stop-color="#FBFBFB" stop-opacity="0.4"/>
<stop offset="1" stop-color="#C71585" stop-opacity="0.3"/>
</radialGradient>
</defs>
</svg>
